<svg width="408" height="65" viewBox="0 0 408 65" fill="none" xmlns="http://www.w3.org/2000/svg">
<path d="M151.05 45.5905C151.05 58.4083 139.07 65 123.391 65C106.748 65 96.3175 56.8939 94.1143 45.5731L105.686 43.2521C107.767 52.1068 114.413 55.9422 123.623 55.9422C132.124 55.9422 138.148 52.246 138.148 45.9445C138.148 40.3102 132.387 38.5404 124.41 37.2349L117.825 36.1672C107.7 34.5193 97.0682 31.2292 97.0682 18.3302C97.0621 7.73478 107.681 0 122.866 0C137.184 0 147.931 8.33244 149.665 17.6571L138.105 19.9723C136.256 12.6669 129.769 9.17961 122.75 9.17961C115.109 9.17961 109.976 12.4116 109.976 18.22C109.976 23.7034 115.731 25.0263 122.689 26.2043L129.17 27.1559C140.437 29.0359 151.056 32.3259 151.056 45.5905H151.05ZM213.35 50.1861C213.35 57.1724 213.479 60.7177 215.084 63.59H202.78C201.803 62.5339 200.827 59.4644 200.821 55.2924C196.427 62.2032 186.582 65 178.776 65C167.04 65 157.171 57.9325 157.171 46.4203C157.171 32.97 167.571 28.0785 185.014 26.4247C197.482 25.2178 200.687 23.1347 200.687 19.2122C200.687 13.694 196.921 9.8469 186.942 9.8469C180.217 9.8469 173.595 13.0035 171.221 20.3205L159.649 17.7732C162.518 6.6381 173.406 0 187.437 0C206.405 0 213.35 8.57034 213.35 18.9743V50.1861ZM200.693 31.5542C198.587 33.6837 190.879 34.7398 183.689 35.5753C176.854 36.4109 170.086 39.4688 170.086 46.4203C170.086 52.3679 174.352 55.4954 181.218 55.4954C189.774 55.4954 200.693 50.9347 200.693 39.0743V31.56V31.5542ZM257.305 0C249.279 0 241.943 2.70978 236.957 9.6032H236.475V1.41582H224.421V63.59H237.079V29.4072C237.079 16.6475 245.087 10.079 253.344 10.079C262.743 10.079 267.814 14.28 267.814 25.9838V63.59H280.472V22.3514C280.466 6.6381 269.151 0 257.305 0ZM343.975 50.1861C343.975 57.1724 344.103 60.7177 345.708 63.59H333.404C332.428 62.5339 331.451 59.4644 331.445 55.2924C327.051 62.2032 317.207 65 309.401 65C297.665 65 287.796 57.9325 287.796 46.4203C287.796 32.97 298.196 28.0785 315.638 26.4247C328.107 25.2178 331.311 23.1347 331.311 19.2122C331.311 13.694 327.545 9.8469 317.567 9.8469C310.841 9.8469 304.219 13.0035 301.845 20.3205L290.274 17.7732C293.148 6.6381 304.036 0 318.061 0C337.03 0 343.975 8.57034 343.975 18.9743V50.1861ZM331.317 31.5542C329.212 33.6837 321.503 34.7398 314.314 35.5753C307.478 36.4109 300.71 39.4688 300.71 46.4203C300.71 52.3679 304.976 55.4954 311.842 55.4954C320.399 55.4954 331.317 50.9347 331.317 39.0743V31.56V31.5542ZM385.378 27.1559L378.897 26.2043C371.939 25.0263 366.184 23.7034 366.184 18.22C366.184 12.4058 371.317 9.17961 378.958 9.17961C385.976 9.17961 392.464 12.6669 394.313 19.9723L405.879 17.6571C404.151 8.33244 393.398 0 379.08 0C363.895 0 353.276 7.73478 353.276 18.3302C353.276 31.2292 363.908 34.5193 374.033 36.1672L380.618 37.2349C388.595 38.5404 394.356 40.3102 394.356 45.9445C394.356 52.246 388.332 55.9422 379.837 55.9422C370.627 55.9422 363.981 52.1126 361.9 43.2521L350.328 45.5731C352.531 56.8939 362.962 65 379.605 65C395.284 65 407.264 58.4083 407.264 45.5905C407.264 32.3201 396.645 29.0359 385.378 27.1559Z" fill="white"/>
<path d="M68.3669 0V32.5H34.1834C34.1834 14.5528 49.49 0 68.3669 0ZM0 65C18.8769 65 34.1834 50.4472 34.1834 32.5H0V65Z" fill="white"/>
</svg>
